<?xml version="1.0" encoding="utf-8"?>
<!-- Generator: Adobe Illustrator 22.0.1, SVG Export Plug-In . SVG Version: 6.00 Build 0)  -->
<svg version="1.1" id="Layer_1" xmlns="http://www.w3.org/2000/svg" xmlns:xlink="http://www.w3.org/1999/xlink" x="0px" y="0px"
	 viewBox="0 0 14 14" style="enable-background:new 0 0 14 14;" xml:space="preserve">
<style type="text/css">
	.st0{fill:#FFFFFF;}
</style>
<path class="st0" d="M13.8,8.8c1-3.7-1.2-7.6-4.9-8.6C7-0.2,5.1,0,3.5,0.9C1.9,1.9,0.7,3.4,0.2,5.2S0,8.9,0.9,10.5
	c0.9,1.6,2.4,2.8,4.2,3.3C5.8,13.9,6.4,14,7,14c0.5,0,1-0.1,1.5-0.2c0.3-0.1,0.4-0.3,0.4-0.6c-0.1-0.3-0.3-0.4-0.6-0.4
	c-0.9,0.2-1.9,0.2-2.9-0.1c-3.2-0.9-5.1-4.2-4.2-7.4C1.6,3.9,2.6,2.6,4,1.8c1.4-0.8,3-1,4.6-0.6c3.2,0.9,5.1,4.2,4.2,7.4
	c0,0,0,0,0,0c0,0,0,0,0,0c-0.1,0.5-0.4,1-0.9,1.2c-0.4,0.3-1,0.4-1.5,0.3c-0.6-0.1-1-0.5-1.3-1C9.7,8.6,10,7.8,10,7c0-1.6-1.3-3-3-3
	C5.4,4,4,5.4,4,7s1.3,3,3,3c0.5,0,0.9-0.1,1.3-0.3c0.4,0.7,1.1,1.2,1.9,1.4c0.2,0.1,0.5,0.1,0.7,0.1c0.6,0,1.1-0.2,1.6-0.5
	C13.1,10.2,13.6,9.6,13.8,8.8C13.8,8.8,13.8,8.8,13.8,8.8C13.8,8.8,13.8,8.8,13.8,8.8C13.8,8.8,13.8,8.8,13.8,8.8
	C13.8,8.8,13.8,8.8,13.8,8.8z M5,7c0-1.1,0.9-2,2-2s2,0.9,2,2c0,1.1-0.9,2-2,2S5,8.1,5,7z"/>
</svg>
